<svg xmlns="http://www.w3.org/2000/svg" xmlns:xlink="http://www.w3.org/1999/xlink" id="Capa_1" width="512" height="512" x="0" style="enable-background:new 0 0 311.465 311.465" y="0" version="1.1" viewBox="0 0 311.465 311.465" xml:space="preserve"><g><path fill="#FFF" d="M274.817,273.435c33.771-21.925,46.494-62.228,28.44-90.019c-18.045-27.783-60.051-32.524-93.813-10.596 c-0.966,0.629-1.792,1.374-2.737,2.032l-0.421-3.72V46.386c0-12.204-9.906-22.104-22.101-22.104 c-12.215,0-22.102,9.9-22.102,22.104v174.455c0,1.291,0.145,2.553,0.365,3.819c0.477,27.556,17.355,54.032,53.282,61.05 c0.737,0.16,1.471,0.296,2.192,0.429c0.493,0.084,0.938,0.192,1.427,0.276v-0.064C236.999,289.076,257.024,284.996,274.817,273.435 z M217.527,215.548c4.199-19.757,20.774-32.974,37.036-29.527c16.25,3.451,26.024,22.266,21.841,42.03 c-4.204,19.757-20.778,32.957-37.045,29.522C223.113,254.106,213.339,235.3,217.527,215.548z"/><path fill="#FFF" d="M116.396,298.81c12.649,0,22.898-10.259,22.898-22.891V98.499c0-7.263-3.446-14.09-9.283-18.402 c-5.835-4.316-13.387-5.597-20.319-3.484L45.783,96.168V35.546c0-12.638-10.253-22.891-22.891-22.891 C10.249,12.655,0,22.908,0,35.546V201.51c0,7.189,3.372,13.949,9.103,18.273c4.021,3.038,8.875,4.633,13.79,4.633 c2.104,0,4.216-0.293,6.286-0.89l64.317-18.37v70.763C93.507,288.551,103.756,298.81,116.396,298.81z M45.791,171.165v-27.112 l47.716-14.601v28.088L45.791,171.165z"/></g></svg>